<?xml version="1.0" standalone="no"?>
<!DOCTYPE svg PUBLIC "-//W3C//DTD SVG 20010904//EN"
 "http://www.w3.org/TR/2001/REC-SVG-20010904/DTD/svg10.dtd">
<svg version="1.0" xmlns="http://www.w3.org/2000/svg"
 width="1024.000000pt" height="1024.000000pt" viewBox="0 0 1024.000000 1024.000000"
 preserveAspectRatio="xMidYMid meet">

<g transform="translate(0.000000,1024.000000) scale(0.100000,-0.100000)"
fill="#000000" stroke="none">
<path d="M55 10188 c33 -28 96 -90 140 -137 112 -120 656 -657 1364 -1346 137
-133 545 -536 884 -873 86 -86 157 -160 157 -164 0 -4 -219 210 -487 476 -269
265 -542 534 -607 597 -144 137 -162 155 -889 873 -317 313 -586 575 -597 583
l-20 14 0 -2550 0 -2550 77 -4 78 -3 -77 -2 -78 -2 0 -2552 0 -2553 97 95 c98
95 98 95 15 10 -45 -47 -82 -89 -82 -93 0 -4 1145 -7 2545 -7 l2544 0 4 58 3
57 2 -58 2 -57 2553 2 2552 3 3 2544 c2 2029 0 2546 -10 2553 -10 6 -10 8 0 8
9 0 12 516 12 2546 0 1550 -4 2544 -9 2542 -5 -1 -46 -38 -90 -80 -45 -43 -81
-74 -81 -70 0 5 41 46 90 91 50 45 90 87 90 92 0 5 -988 9 -2550 9 l-2550 0
-3 -207 -2 -208 -3 208 -2 207 -2567 0 -2568 -1 60 -51z m9904 -256 c-51 -55
-101 -102 -109 -106 -8 -4 32 41 90 99 57 58 107 105 109 105 3 0 -38 -44 -90
-98z m-4822 -159 c-3 -10 -5 -2 -5 17 0 19 2 27 5 18 2 -10 2 -26 0 -35z
m4659 -8 c-9 -9 -16 -13 -16 -8 0 12 22 34 28 28 2 -2 -3 -11 -12 -20z m-4656
-40 c0 -14 -4 -25 -9 -25 -5 0 -8 8 -6 18 2 9 4 20 4 25 2 19 11 4 11 -18z
m4387 -230 c-136 -134 -368 -360 -515 -502 -147 -142 -368 -357 -492 -479
-388 -380 -560 -547 -735 -717 l-169 -164 30 -39 c91 -117 179 -288 227 -440
67 -213 67 -204 70 -1172 l2 -872 -315 -2 -315 -3 315 -5 315 -5 2 -825 c2
-494 -2 -863 -8 -920 -5 -52 -23 -144 -40 -205 -67 -241 -152 -390 -313 -550
-154 -153 -320 -258 -524 -329 -185 -64 -215 -66 -1118 -66 l-809 0 0 668 c-1
367 0 526 2 354 l3 -313 88 6 c213 15 362 46 562 116 225 80 417 181 600 318
339 253 609 594 737 931 81 213 130 395 143 525 6 66 13 126 16 134 8 25 5
275 -6 401 -12 133 -46 314 -81 433 -89 295 -272 608 -511 872 -5 6 -16 5 -31
-4 -21 -13 -21 -13 -7 4 13 16 9 23 -50 79 -325 307 -807 533 -1235 576 -148
16 -445 8 -570 -15 -467 -84 -886 -296 -1187 -602 -142 -145 -157 -161 -249
-293 -252 -357 -371 -698 -395 -1138 -6 -101 -5 -126 7 -133 8 -5 -131 -9
-344 -9 l-359 0 5 853 5 852 26 135 c71 377 218 628 483 829 183 139 393 228
592 251 50 6 433 10 909 10 453 0 827 2 831 4 4 3 7 72 6 153 -2 101 0 131 5
93 9 -60 13 -234 6 -241 -3 -2 -6 -166 -9 -364 -2 -198 0 -346 4 -330 3 17 7
176 8 355 l1 325 868 -1 c956 0 904 3 1090 -65 108 -39 262 -119 322 -168 25
-20 76 -64 114 -99 38 -35 72 -62 76 -60 4 2 192 183 416 403 225 220 481 470
569 555 88 85 268 261 400 390 132 130 310 303 395 385 85 83 204 201 264 263
60 62 112 110 115 107 3 -4 -106 -116 -242 -250z m-4387 105 c0 -33 -4 -60 -9
-60 -5 0 -8 24 -6 53 4 65 4 67 10 67 3 0 5 -27 5 -60z m-2 -340 c1 -148 -1
-270 -5 -270 -5 0 -9 122 -11 270 -2 149 0 270 5 270 5 0 10 -121 11 -270z
m-11 -367 c-2 -16 -4 -5 -4 22 0 28 2 40 4 28 2 -13 2 -35 0 -50z m10 -215
c-3 -7 -5 -2 -5 12 0 14 2 19 5 13 2 -7 2 -19 0 -25z m-10 -150 c-3 -8 -6 -5
-6 6 -1 11 2 17 5 13 3 -3 4 -12 1 -19z m0 -140 c-2 -24 -4 -5 -4 42 0 47 2
66 4 43 2 -24 2 -62 0 -85z m10 -1180 c-2 -13 -4 -5 -4 17 -1 22 1 32 4 23 2
-10 2 -28 0 -40z m0 -585 c-1 -103 -2 -21 -2 182 0 204 1 288 2 188 2 -100 2
-266 0 -370z m148 -273 c113 -42 151 -97 282 -410 36 -85 91 -212 124 -281 32
-70 59 -129 59 -133 0 -3 28 -68 61 -144 34 -75 76 -175 94 -222 45 -116 172
-410 295 -680 56 -124 117 -263 136 -308 20 -46 55 -125 80 -174 24 -50 43
-92 42 -93 -10 -8 -200 -25 -274 -25 -105 0 -152 11 -195 47 -34 29 -92 144
-190 378 -32 77 -67 151 -78 165 l-18 25 -288 3 -287 2 6 23 c3 12 6 106 6
210 l0 187 201 0 201 0 -6 24 c-3 13 -44 112 -91 219 -46 107 -127 303 -180
436 -52 133 -103 256 -113 275 l-18 34 -56 -116 c-31 -65 -68 -149 -81 -188
-34 -94 -104 -265 -183 -445 -55 -126 -94 -223 -94 -235 0 -2 92 -4 205 -4
l205 0 0 -118 c0 -66 -3 -160 -6 -210 l-7 -92 -126 0 c-69 0 -197 -3 -285 -7
l-158 -6 -50 -106 c-27 -58 -63 -139 -79 -179 -70 -175 -129 -266 -192 -295
-39 -18 -238 -30 -342 -21 -88 8 -90 13 -46 98 16 30 45 95 65 143 19 49 41
102 49 118 8 17 38 86 66 155 29 69 67 159 86 200 77 169 115 257 115 265 0 4
23 59 52 121 l52 114 230 2 231 3 -229 2 c-211 3 -228 5 -223 21 3 9 28 69 57
132 28 63 60 138 70 165 9 28 29 73 42 100 14 28 31 68 38 90 7 22 27 72 46
110 18 39 54 117 79 175 26 58 64 141 86 185 21 45 39 85 39 89 0 5 17 31 37
58 101 132 289 180 458 118z m-1295 -65 c35 -36 62 -65 59 -65 -2 0 -34 29
-69 65 -35 36 -62 65 -59 65 2 0 34 -29 69 -65z m2120 -199 c0 -2 -8 -10 -17
-17 -16 -13 -17 -12 -4 4 13 16 21 21 21 13z m-240 -259 c0 -2 -12 -14 -27
-28 l-28 -24 24 28 c23 25 31 32 31 24z m-733 -284 c-2 -16 -4 -5 -4 22 0 28
2 40 4 28 2 -13 2 -35 0 -50z m0 -480 c-1 -76 -3 -14 -3 137 0 151 2 213 3
138 2 -76 2 -200 0 -275z m1620 182 c66 -33 79 -49 97 -120 12 -45 14 -72 7
-116 -11 -68 -23 -93 -65 -137 -47 -51 -83 -66 -157 -66 -53 0 -74 5 -110 26
-82 48 -128 150 -114 248 9 58 27 91 67 125 82 70 185 84 275 40z m3088 -135
c3 -5 1 -10 -4 -10 -6 0 -11 5 -11 10 0 6 2 10 4 10 3 0 8 -4 11 -10z m-9622
-7 c-13 -2 -33 -2 -45 0 -13 2 -3 4 22 4 25 0 35 -2 23 -4z m235 0 c-10 -2
-26 -2 -35 0 -10 3 -2 5 17 5 19 0 27 -2 18 -5z m70 0 c-10 -2 -26 -2 -35 0
-10 3 -2 5 17 5 19 0 27 -2 18 -5z m69 1 c-3 -3 -12 -4 -19 -1 -8 3 -5 6 6 6
11 1 17 -2 13 -5z m70 0 c-3 -3 -12 -4 -19 -1 -8 3 -5 6 6 6 11 1 17 -2 13 -5z
m60 0 c-3 -3 -12 -4 -19 -1 -8 3 -5 6 6 6 11 1 17 -2 13 -5z m246 -1 c-13 -2
-33 -2 -45 0 -13 2 -3 4 22 4 25 0 35 -2 23 -4z m165 0 c-10 -2 -26 -2 -35 0
-10 3 -2 5 17 5 19 0 27 -2 18 -5z m165 0 c-7 -2 -21 -2 -30 0 -10 3 -4 5 12
5 17 0 24 -2 18 -5z m295 0 c-26 -2 -71 -2 -100 0 -29 2 -8 3 47 3 55 0 79 -1
53 -3z m129 1 c-3 -3 -12 -4 -19 -1 -8 3 -5 6 6 6 11 1 17 -2 13 -5z m366 -1
c-13 -2 -33 -2 -45 0 -13 2 -3 4 22 4 25 0 35 -2 23 -4z m120 0 c-18 -2 -48
-2 -65 0 -18 2 -4 4 32 4 36 0 50 -2 33 -4z m1149 0 c-62 -2 -161 -2 -220 0
-59 1 -8 3 113 3 121 0 169 -2 107 -3z m3645 1 c-3 -3 -12 -4 -19 -1 -8 3 -5
6 6 6 11 1 17 -2 13 -5z m246 -1 c-18 -2 -48 -2 -65 0 -18 2 -4 4 32 4 36 0
50 -2 33 -4z m865 0 c-10 -2 -26 -2 -35 0 -10 3 -2 5 17 5 19 0 27 -2 18 -5z
m990 0 c-10 -2 -26 -2 -35 0 -10 3 -2 5 17 5 19 0 27 -2 18 -5z m79 1 c-3 -3
-12 -4 -19 -1 -8 3 -5 6 6 6 11 1 17 -2 13 -5z m70 0 c-3 -3 -12 -4 -19 -1 -8
3 -5 6 6 6 11 1 17 -2 13 -5z m-6293 -122 c14 -249 49 -407 146 -654 95 -242
228 -457 421 -678 203 -232 427 -397 731 -536 161 -74 202 -89 342 -129 147
-41 264 -61 409 -70 l107 -7 0 -348 0 -348 -22 -5 c-12 -4 -402 -5 -867 -3
-907 3 -907 3 -1065 56 -145 48 -343 166 -461 274 l-60 56 70 72 70 73 -73
-70 c-58 -56 -75 -67 -82 -55 -4 8 -37 52 -73 96 -35 45 -78 107 -95 138 -76
133 -145 348 -173 537 -8 48 -13 361 -16 897 l-5 822 345 0 344 0 7 -118z
m2173 -834 c-1 -62 -3 -14 -3 107 0 121 2 172 3 113 2 -59 2 -158 0 -220z
m-1287 -323 c-24 -25 -46 -45 -49 -45 -3 0 15 20 39 45 24 25 46 45 49 45 3 0
-15 -20 -39 -45z m-160 -159 c0 -2 -8 -10 -17 -17 -16 -13 -17 -12 -4 4 13 16
21 21 21 13z m3996 -1138 l29 -33 -32 29 c-18 17 -33 31 -33 33 0 8 8 1 36
-29z m-5186 -83 c-41 -41 -77 -75 -79 -75 -3 0 28 34 69 75 41 41 77 75 79 75
3 0 -28 -34 -69 -75z m-175 -173 c-38 -37 -58 -53 -45 -37 46 57 104 115 109
109 3 -2 -26 -35 -64 -72z m5610 8 c10 -11 16 -20 13 -20 -3 0 -13 9 -23 20
-10 11 -16 20 -13 20 3 0 13 -9 23 -20z m445 -437 c0 -7 -323 302 -370 353
-19 21 56 -49 168 -155 111 -107 202 -196 202 -198z m-6531 -42 c-211 -208
-385 -378 -386 -377 -2 1 108 112 242 247 411 409 520 516 524 512 3 -2 -168
-174 -380 -382z m6625 -47 c64 -70 56 -69 -14 1 -30 30 -50 55 -45 54 6 -1 32
-25 59 -55z m376 -363 l35 -35 -40 33 c-45 37 -221 209 -275 268 -31 34 193
-178 280 -266z m-3723 127 c-3 -7 -5 -2 -5 12 0 14 2 19 5 13 2 -7 2 -19 0
-25z m-3699 -130 c-14 -13 -63 -59 -109 -103 -71 -68 -68 -64 20 27 58 59 107
106 109 103 2 -2 -7 -14 -20 -27z m3699 -10 c-3 -8 -6 -5 -6 6 -1 11 2 17 5
13 3 -3 4 -12 1 -19z m0 -60 c-3 -7 -5 -2 -5 12 0 14 2 19 5 13 2 -7 2 -19 0
-25z m3792 -1 l25 -32 -32 29 c-33 31 -37 36 -24 35 4 0 18 -14 31 -32z
m-3792 -69 c-3 -8 -6 -5 -6 6 -1 11 2 17 5 13 3 -3 4 -12 1 -19z m3869 -10
l29 -33 -32 29 c-18 17 -33 31 -33 33 0 8 8 1 36 -29z m-3869 -30 c-3 -8 -6
-5 -6 6 -1 11 2 17 5 13 3 -3 4 -12 1 -19z m-3897 -8 c0 -5 -5 -10 -11 -10 -5
0 -7 5 -4 10 3 6 8 10 11 10 2 0 4 -4 4 -10z m8292 -470 c38 -35 66 -66 63
-68 -3 -3 -13 3 -23 14 -10 10 -56 56 -102 101 -47 44 -161 159 -255 255
l-170 173 210 -206 c116 -113 240 -234 277 -269z m-4395 438 c-3 -8 -6 -5 -6
6 -1 11 2 17 5 13 3 -3 4 -12 1 -19z m-4109 -174 c-84 -82 -213 -207 -285
-279 -73 -71 -133 -127 -133 -124 0 3 57 62 128 130 70 69 197 193 282 277 85
83 156 150 157 148 2 -2 -65 -70 -149 -152z m4109 -11 c-2 -27 -3 -5 -3 47 0
52 1 74 3 48 2 -27 2 -69 0 -95z m4578 -443 c60 -60 107 -110 105 -110 -3 0
-55 50 -115 110 -60 61 -107 110 -105 110 3 0 55 -49 115 -110z m-9185 -35
c-41 -41 -77 -75 -79 -75 -3 0 28 34 69 75 41 41 77 75 79 75 3 0 -28 -34 -69
-75z m4607 -2 c-2 -16 -4 -5 -4 22 0 28 2 40 4 28 2 -13 2 -35 0 -50z m-4697
-86 c0 -2 -12 -14 -27 -28 l-28 -24 24 28 c23 25 31 32 31 24z m9430 -32 c19
-19 32 -35 29 -35 -3 0 -20 16 -39 35 -19 19 -32 35 -29 35 3 0 20 -16 39 -35z
m-4733 -37 c-2 -13 -4 -3 -4 22 0 25 2 35 4 23 2 -13 2 -33 0 -45z m-4757 8
c0 -2 -8 -10 -17 -17 -16 -13 -17 -12 -4 4 13 16 21 21 21 13z m9615 -96 c44
-44 77 -80 75 -80 -3 0 -41 36 -85 80 -44 44 -77 80 -75 80 3 0 41 -36 85 -80z
m-9675 36 c0 -2 -8 -10 -17 -17 -16 -13 -17 -12 -4 4 13 16 21 21 21 13z m-40
-39 c0 -2 -12 -14 -27 -28 l-28 -24 24 28 c23 25 31 32 31 24z m9895 -177 c38
-38 67 -70 64 -70 -2 0 -36 32 -74 70 -38 39 -67 70 -64 70 2 0 36 -31 74 -70z"/>
<path d="M2850 7415 c13 -14 26 -25 28 -25 3 0 -5 11 -18 25 -13 14 -26 25
-28 25 -3 0 5 -11 18 -25z"/>
<path d="M2980 7287 c0 -2 15 -16 33 -33 l32 -29 -29 33 c-28 30 -36 37 -36
29z"/>
<path d="M7214 7198 l-19 -23 23 19 c21 18 27 26 19 26 -2 0 -12 -10 -23 -22z"/>
<path d="M7109 7093 l-24 -28 28 24 c15 14 27 26 27 28 0 8 -8 1 -31 -24z"/>
<path d="M3220 7037 c0 -2 15 -16 33 -33 l32 -29 -29 33 c-28 30 -36 37 -36
29z"/>
<path d="M3380 6876 c0 -2 8 -10 18 -17 15 -13 16 -12 3 4 -13 16 -21 21 -21
13z"/>
<path d="M6715 3520 c27 -27 51 -50 54 -50 3 0 -17 23 -44 50 -27 28 -51 50
-54 50 -3 0 17 -22 44 -50z"/>
<path d="M6915 3320 c33 -33 62 -60 64 -60 3 0 -21 27 -54 60 -33 33 -62 60
-64 60 -3 0 21 -27 54 -60z"/>
<path d="M7066 3167 c75 -86 231 -244 370 -377 49 -46 1 5 -107 115 -108 110
-227 232 -264 270 l-68 70 69 -78z"/>
<path d="M7575 2640 c10 -11 20 -20 23 -20 3 0 -3 9 -13 20 -10 11 -20 20 -23
20 -3 0 3 -9 13 -20z"/>
<path d="M5578 5113 c57 -2 147 -2 200 0 53 1 7 3 -103 3 -110 0 -154 -2 -97
-3z"/>
<path d="M3539 3493 l-34 -38 38 34 c20 19 37 36 37 38 0 8 -8 0 -41 -34z"/>
<path d="M3365 3318 l-100 -103 96 90 c81 76 117 115 106 115 -1 0 -47 -46
-102 -102z"/>
<path d="M3203 3152 c-29 -31 -51 -57 -50 -59 2 -1 27 22 57 52 30 30 52 57
49 59 -2 2 -28 -21 -56 -52z"/>
<path d="M2934 2890 c-131 -131 -168 -171 -105 -117 36 32 256 257 250 257 -2
0 -67 -63 -145 -140z"/>
</g>
</svg>
